<?xml version="1.0" standalone="no"?>
<!DOCTYPE svg PUBLIC "-//W3C//DTD SVG 20010904//EN"
 "http://www.w3.org/TR/2001/REC-SVG-20010904/DTD/svg10.dtd">
<svg version="1.0" xmlns="http://www.w3.org/2000/svg"
 width="260.000000pt" height="260.000000pt" viewBox="0 0 260.000000 260.000000"
 preserveAspectRatio="xMidYMid meet">
<metadata>
Created by potrace 1.14, written by Peter Selinger 2001-2017
</metadata>
<g transform="translate(0.000000,260.000000) scale(0.100000,-0.100000)"
fill="#000000" stroke="none">
<path d="M2212 1877 c-43 -122 -60 -159 -108 -222 -53 -71 -59 -75 -95 -75
l-39 0 0 -58 c0 -57 -1 -58 -35 -70 -31 -12 -36 -20 -62 -97 -15 -47 -32 -85
-39 -85 -6 0 -33 9 -59 21 -26 11 -51 17 -55 12 -4 -4 -22 -42 -40 -83 -18
-41 -36 -79 -41 -84 -4 -5 -27 -4 -54 4 -43 12 -47 11 -69 -9 l-22 -21 -25 26
c-36 39 -150 124 -166 124 -13 0 -79 -48 -162 -119 l-35 -29 -26 20 c-24 17
-28 18 -63 3 -20 -8 -40 -15 -45 -15 -5 0 -28 41 -50 90 -23 50 -46 90 -51 90
-6 0 -33 -9 -61 -20 -28 -11 -52 -20 -54 -20 -2 0 -16 38 -30 85 -24 77 -30
86 -60 99 -31 13 -34 19 -40 69 -7 55 -8 56 -46 62 -33 6 -46 17 -95 80 -47
62 -63 94 -100 206 -25 73 -49 137 -55 143 -17 17 -18 -84 -2 -325 9 -140 13
-162 40 -220 17 -35 38 -99 47 -142 13 -61 28 -94 66 -150 41 -62 50 -84 61
-149 11 -72 15 -81 66 -140 34 -38 72 -98 98 -153 35 -75 50 -96 90 -125 70
-52 71 -52 169 -72 130 -28 179 -32 229 -19 38 9 51 8 79 -5 31 -15 36 -15 65
0 26 13 40 14 81 5 43 -9 67 -7 167 15 65 14 124 26 132 26 7 0 40 21 73 47
51 40 65 59 102 137 24 50 63 113 86 140 63 72 69 85 76 160 7 61 13 75 54
130 39 51 51 78 70 156 13 52 36 124 51 160 22 54 28 86 33 190 4 69 10 166
13 215 3 50 2 101 -3 114 -8 20 -17 3 -61 -122z"/>
<path d="M1068 1821 c-118 -38 -212 -118 -264 -226 -33 -67 -34 -74 -34 -187
0 -132 2 -134 62 -93 36 25 58 69 58 120 0 31 27 63 72 86 39 20 48 20 128 10
104 -13 180 -14 199 -2 10 6 25 4 45 -6 26 -13 43 -14 123 -4 50 6 108 11 128
11 70 0 135 -52 135 -108 0 -46 23 -94 53 -112 63 -39 67 -33 67 90 0 168 -41
257 -160 345 -70 50 -147 82 -224 91 -45 5 -63 2 -102 -16 l-47 -23 -41 21
c-51 27 -119 28 -198 3z"/>
</g>
</svg>
